name C:\Users\u0101727\Documents\MyRepositories\upper-imu-dc\Results\main_tracking\Case_19\kinematics.mot
datacolumns 10
datarows 28
range 0.70000000 0.97000000
endheader 
time	clav_prot	clav_elev	scapula_abduction	scapula_elevation	scapula_upward_rot	scapula_winging	plane_elv	shoulder_elv	axial_rot	
          0.70000000	        -24.27188459	          3.25812496	        -14.91045320	          0.33542738	         17.84402071	          2.40198240	         14.92430062	          7.63071796	          7.56152987	
          0.71000000	        -24.00468308	          3.24104515	        -14.27687382	          0.28507399	         18.08664341	          2.34434949	         16.29456975	          7.79590318	          5.25062919	
          0.72000000	        -23.71768163	          3.25611554	        -13.63545089	          0.25809923	         18.30851778	          2.28650352	         17.70012158	          8.00182416	          3.01297452	
          0.73000000	        -23.45276890	          3.27705496	        -13.04819183	          0.23981247	         18.50803862	          2.23152938	         19.16603800	          8.24626727	          0.88429210	
          0.74000000	        -23.21883003	          3.30004393	        -12.53177846	          0.22761166	         18.68190622	          2.18129678	         20.69707658	          8.53177743	         -1.11164435	
          0.75000000	        -23.01837049	          3.32339795	        -12.09063095	          0.22017015	         18.82975066	          2.13679001	         22.28253808	          8.85826092	         -2.96701432	
          0.76000000	        -22.85435048	          3.34645016	        -11.73034046	          0.21690931	         18.95118427	          2.09883764	         23.91140505	          9.22572977	         -4.67592311	
          0.77000000	        -22.72514612	          3.36903444	        -11.44688098	          0.21727238	         19.04834967	          2.06739094	         25.57138616	          9.63175305	         -6.23792877	
          0.78000000	        -22.62869705	          3.39185676	        -11.23522301	          0.22120005	         19.12411908	          2.04193492	         27.25263616	         10.07339614	         -7.65561580	
          0.79000000	        -22.57719911	          3.41739940	        -11.11495949	          0.22865696	         19.18316882	          2.02117136	         28.94672455	         10.54618662	         -8.93528163	
          0.80000000	        -22.46380505	          3.43940428	        -10.89202274	          0.24029354	         19.22972268	          2.00393936	         30.64666691	         11.04662526	        -10.08758394	
          0.81000000	        -22.48804900	          3.47632408	        -10.92378179	          0.25698252	         19.26790169	          1.98864022	         32.34582405	         11.57151287	        -11.12503612	
          0.82000000	        -22.48662718	          3.51518621	        -10.90957696	          0.27617249	         19.30804243	          1.97233531	         34.03458453	         12.11139552	        -12.05572924	
          0.83000000	        -22.49804359	          3.55894756	        -10.91401277	          0.29601872	         19.35718798	          1.95293752	         35.70217605	         12.66035198	        -12.89069683	
          0.84000000	        -22.51703871	          3.60614126	        -10.92384031	          0.31446637	         19.42042640	          1.92903674	         37.33629525	         13.21447328	        -13.64125232	
          0.85000000	        -22.54054408	          3.65441588	        -10.92996646	          0.32891692	         19.50187084	          1.89962304	         38.92427522	         13.77073931	        -14.31773228	
          0.86000000	        -22.56406517	          3.70104460	        -10.92190000	          0.33707585	         19.60367377	          1.86430775	         40.45464433	         14.32804925	        -14.92893025	
          0.87000000	        -22.58553751	          3.74379766	        -10.89496649	          0.33739236	         19.72596021	          1.82328072	         41.91901963	         14.88738820	        -15.48271757	
          0.88000000	        -22.60327922	          3.78122599	        -10.84581229	          0.32902002	         19.86832181	          1.77682174	         43.31333412	         15.45037177	        -15.98662331	
          0.89000000	        -22.61637375	          3.81317483	        -10.77362934	          0.31230060	         20.02931117	          1.72539848	         44.63794398	         16.01994378	        -16.45088833	
          0.90000000	        -22.62490257	          3.84062682	        -10.67983763	          0.28837574	         20.20745644	          1.66937554	         45.89688081	         16.59939861	        -16.89199009	
          0.91000000	        -22.62887699	          3.86529076	        -10.56612819	          0.25897295	         20.40112491	          1.60908889	         47.09600647	         17.19245407	        -17.33393846	
          0.92000000	        -22.62860832	          3.88912030	        -10.43503947	          0.22605807	         20.60836541	          1.54493917	         48.24117009	         17.80325659	        -17.80928397	
          0.93000000	        -22.62446486	          3.91388652	        -10.28941004	          0.19154283	         20.82684170	          1.47745227	         49.33687278	         18.43622786	        -18.35901281	
          0.94000000	        -22.61720684	          3.94091475	        -10.13291051	          0.15707722	         21.05378149	          1.40732240	         50.38556383	         19.09580139	        -19.02930649	
          0.95000000	        -22.60713071	          3.97080068	         -9.96837193	          0.12386723	         21.28605594	          1.33541826	         51.38755358	         19.78595752	        -19.86551944	
          0.96000000	        -22.59635612	          4.00351297	         -9.80171111	          0.09255202	         21.52043429	          1.26270609	         52.34160905	         20.50959844	        -20.90541740	
          0.97000000	        -22.58373029	          4.03818518	         -9.63248817	          0.06323769	         21.75407368	          1.19011513	         53.24607750	         21.26779494	        -22.17198615	
